<mxfile host="app.diagrams.net" agent="Mozilla/5.0 (Macintosh; Intel Mac OS X 10_15_7) AppleWebKit/537.36 (KHTML, like Gecko) Chrome/130.0.0.0 Safari/537.36" version="24.7.17">
  <diagram name="Page-1" id="sY0APH3Yig54Sk834qyU">
    <mxGraphModel dx="821" dy="547" grid="1" gridSize="10" guides="1" tooltips="1" connect="1" arrows="1" fold="1" page="1" pageScale="1" pageWidth="850" pageHeight="1100" math="0" shadow="0">
      <root>
        <mxCell id="0" />
        <mxCell id="1" parent="0" />
        <mxCell id="xSZ3IVYEIuexcALMMl_H-76" value="" style="shape=step;perimeter=stepPerimeter;whiteSpace=wrap;html=1;fixedSize=1;size=10;" vertex="1" parent="1">
          <mxGeometry x="413" y="338.5" width="60" height="25" as="geometry" />
        </mxCell>
        <mxCell id="xSZ3IVYEIuexcALMMl_H-2" value="" style="endArrow=open;html=1;rounded=0;align=center;verticalAlign=bottom;dashed=1;endFill=0;labelBackgroundColor=none;spacingBottom=35;" edge="1" parent="1">
          <mxGeometry x="-0.01" relative="1" as="geometry">
            <mxPoint x="350" y="310" as="sourcePoint" />
            <mxPoint x="420" y="351" as="targetPoint" />
            <mxPoint as="offset" />
          </mxGeometry>
        </mxCell>
        <mxCell id="xSZ3IVYEIuexcALMMl_H-62" value="&lt;font style=&quot;font-size: 8px;&quot;&gt;PVCG&lt;/font&gt;" style="edgeLabel;html=1;align=center;verticalAlign=middle;resizable=0;points=[];rotation=30;fontColor=#4D4D4D;" vertex="1" connectable="0" parent="xSZ3IVYEIuexcALMMl_H-2">
          <mxGeometry x="-0.3976" relative="1" as="geometry">
            <mxPoint as="offset" />
          </mxGeometry>
        </mxCell>
        <mxCell id="xSZ3IVYEIuexcALMMl_H-3" value="" style="endArrow=open;html=1;rounded=0;align=center;verticalAlign=top;dashed=1;endFill=0;labelBackgroundColor=none;spacingTop=35;" edge="1" parent="1">
          <mxGeometry x="-0.01" relative="1" as="geometry">
            <mxPoint x="350" y="390" as="sourcePoint" />
            <mxPoint x="420" y="350" as="targetPoint" />
            <mxPoint as="offset" />
          </mxGeometry>
        </mxCell>
        <mxCell id="xSZ3IVYEIuexcALMMl_H-63" value="&lt;font style=&quot;font-size: 8px;&quot;&gt;Sharply&lt;/font&gt;" style="edgeLabel;html=1;align=center;verticalAlign=middle;resizable=0;points=[];rotation=-30;fontColor=#666666;" vertex="1" connectable="0" parent="xSZ3IVYEIuexcALMMl_H-3">
          <mxGeometry x="-0.2106" relative="1" as="geometry">
            <mxPoint as="offset" />
          </mxGeometry>
        </mxCell>
        <mxCell id="xSZ3IVYEIuexcALMMl_H-6" value="" style="rounded=0;whiteSpace=wrap;html=1;dashed=1;dashPattern=1 1;" vertex="1" parent="1">
          <mxGeometry x="270" y="177.5" width="70" height="315" as="geometry" />
        </mxCell>
        <mxCell id="xSZ3IVYEIuexcALMMl_H-7" value="Miner&lt;div&gt;&lt;br/&gt;&lt;/div&gt;" style="text;html=1;align=center;verticalAlign=middle;resizable=0;points=[];autosize=1;strokeColor=none;fillColor=none;" vertex="1" parent="1">
          <mxGeometry x="280" y="177.5" width="50" height="40" as="geometry" />
        </mxCell>
        <mxCell id="xSZ3IVYEIuexcALMMl_H-9" value="&lt;span style=&quot;font-family: Helvetica; font-style: normal; font-variant-ligatures: normal; font-variant-caps: normal; font-weight: 400; letter-spacing: normal; orphans: 2; text-indent: 0px; text-transform: none; widows: 2; word-spacing: 0px; -webkit-text-stroke-width: 0px; white-space: normal; background-color: rgb(251, 251, 251); text-decoration-thickness: initial; text-decoration-style: initial; text-decoration-color: initial; float: none; display: inline !important;&quot;&gt;&lt;font color=&quot;#999999&quot; style=&quot;font-size: 6px;&quot;&gt;Resource Contributors&lt;/font&gt;&lt;/span&gt;" style="text;whiteSpace=wrap;html=1;align=center;" vertex="1" parent="1">
          <mxGeometry x="270" y="191" width="70" height="30" as="geometry" />
        </mxCell>
        <mxCell id="xSZ3IVYEIuexcALMMl_H-15" value="&lt;font style=&quot;font-size: 9px;&quot;&gt;CPU&lt;/font&gt;" style="rounded=1;whiteSpace=wrap;html=1;" vertex="1" parent="1">
          <mxGeometry x="278" y="223" width="34" height="18" as="geometry" />
        </mxCell>
        <mxCell id="xSZ3IVYEIuexcALMMl_H-16" value="&lt;font style=&quot;font-size: 8px;&quot;&gt;FPGA&lt;/font&gt;" style="rounded=1;whiteSpace=wrap;html=1;" vertex="1" parent="1">
          <mxGeometry x="294" y="246" width="36" height="19" as="geometry" />
        </mxCell>
        <mxCell id="xSZ3IVYEIuexcALMMl_H-17" value="&lt;font style=&quot;font-size: 9px;&quot;&gt;NPU&lt;/font&gt;" style="rounded=1;whiteSpace=wrap;html=1;" vertex="1" parent="1">
          <mxGeometry x="275" y="275" width="40" height="20" as="geometry" />
        </mxCell>
        <mxCell id="xSZ3IVYEIuexcALMMl_H-18" value="" style="rounded=1;whiteSpace=wrap;html=1;align=center;" vertex="1" parent="1">
          <mxGeometry x="274" y="328" width="36" height="17" as="geometry" />
        </mxCell>
        <mxCell id="xSZ3IVYEIuexcALMMl_H-19" value="&lt;font style=&quot;font-size: 13px;&quot;&gt;GPU&lt;/font&gt;" style="rounded=1;whiteSpace=wrap;html=1;" vertex="1" parent="1">
          <mxGeometry x="294" y="303" width="40" height="18" as="geometry" />
        </mxCell>
        <mxCell id="xSZ3IVYEIuexcALMMl_H-20" value="&lt;span style=&quot;font-size: 7px; text-wrap-mode: wrap;&quot;&gt;MPU&lt;/span&gt;" style="text;html=1;align=center;verticalAlign=middle;resizable=0;points=[];autosize=1;strokeColor=none;fillColor=none;" vertex="1" parent="1">
          <mxGeometry x="272" y="320" width="40" height="30" as="geometry" />
        </mxCell>
        <mxCell id="xSZ3IVYEIuexcALMMl_H-21" value="&lt;font style=&quot;font-size: 7px;&quot;&gt;IPFS&lt;/font&gt;" style="strokeWidth=1;html=1;shape=mxgraph.flowchart.database;whiteSpace=wrap;" vertex="1" parent="1">
          <mxGeometry x="272" y="395" width="40" height="16" as="geometry" />
        </mxCell>
        <mxCell id="xSZ3IVYEIuexcALMMl_H-22" value="&lt;font style=&quot;font-size: 8px;&quot;&gt;Ceph&lt;/font&gt;" style="strokeWidth=1;html=1;shape=mxgraph.flowchart.database;whiteSpace=wrap;" vertex="1" parent="1">
          <mxGeometry x="275" y="445" width="25" height="16" as="geometry" />
        </mxCell>
        <mxCell id="xSZ3IVYEIuexcALMMl_H-23" value="&lt;font style=&quot;font-size: 7px;&quot;&gt;IPNS&lt;/font&gt;" style="strokeWidth=1;html=1;shape=mxgraph.flowchart.database;whiteSpace=wrap;" vertex="1" parent="1">
          <mxGeometry x="290" y="415" width="40" height="16" as="geometry" />
        </mxCell>
        <mxCell id="xSZ3IVYEIuexcALMMl_H-26" value="&lt;div style=&quot;text-align: start;&quot;&gt;&lt;span style=&quot;background-color: initial; font-size: 0px; text-wrap-mode: nowrap;&quot;&gt;&lt;font face=&quot;monospace&quot; color=&quot;rgba(0, 0, 0, 0)&quot;&gt;O&lt;/font&gt;&lt;/span&gt;&lt;/div&gt;" style="strokeWidth=1;html=1;shape=mxgraph.flowchart.database;whiteSpace=wrap;" vertex="1" parent="1">
          <mxGeometry x="305" y="435" width="25" height="16" as="geometry" />
        </mxCell>
        <mxCell id="xSZ3IVYEIuexcALMMl_H-27" value="" style="strokeWidth=1;html=1;shape=mxgraph.flowchart.database;whiteSpace=wrap;" vertex="1" parent="1">
          <mxGeometry x="301.5" y="461" width="25" height="16" as="geometry" />
        </mxCell>
        <mxCell id="xSZ3IVYEIuexcALMMl_H-28" value="&lt;font style=&quot;font-size: 8px;&quot;&gt;OSS&lt;/font&gt;" style="text;html=1;align=center;verticalAlign=middle;resizable=0;points=[];autosize=1;strokeColor=none;fillColor=none;" vertex="1" parent="1">
          <mxGeometry x="296.5" y="428" width="40" height="30" as="geometry" />
        </mxCell>
        <mxCell id="xSZ3IVYEIuexcALMMl_H-29" value="&lt;font style=&quot;font-size: 8px;&quot;&gt;S3&lt;/font&gt;" style="text;html=1;align=center;verticalAlign=middle;resizable=0;points=[];autosize=1;strokeColor=none;fillColor=none;" vertex="1" parent="1">
          <mxGeometry x="299" y="454" width="30" height="30" as="geometry" />
        </mxCell>
        <mxCell id="xSZ3IVYEIuexcALMMl_H-30" value="" style="endArrow=none;dashed=1;html=1;dashPattern=1 3;strokeWidth=2;rounded=0;" edge="1" parent="1">
          <mxGeometry width="50" height="50" relative="1" as="geometry">
            <mxPoint x="440" y="340" as="sourcePoint" />
            <mxPoint x="440" y="169" as="targetPoint" />
          </mxGeometry>
        </mxCell>
        <mxCell id="xSZ3IVYEIuexcALMMl_H-31" value="&lt;font color=&quot;#474747&quot; style=&quot;font-size: 11px;&quot;&gt;Janction Layer2&lt;/font&gt;" style="text;html=1;align=center;verticalAlign=middle;resizable=0;points=[];autosize=1;strokeColor=none;fillColor=none;" vertex="1" parent="1">
          <mxGeometry x="394" y="172" width="100" height="30" as="geometry" />
        </mxCell>
        <mxCell id="xSZ3IVYEIuexcALMMl_H-40" style="edgeStyle=orthogonalEdgeStyle;rounded=0;orthogonalLoop=1;jettySize=auto;html=1;endArrow=none;endFill=0;strokeColor=#999999;" edge="1" parent="1" source="xSZ3IVYEIuexcALMMl_H-32">
          <mxGeometry relative="1" as="geometry">
            <mxPoint x="425" y="221" as="targetPoint" />
          </mxGeometry>
        </mxCell>
        <mxCell id="xSZ3IVYEIuexcALMMl_H-42" style="rounded=0;orthogonalLoop=1;jettySize=auto;html=1;entryX=0;entryY=0.5;entryDx=0;entryDy=0;endArrow=none;endFill=0;" edge="1" parent="1" source="xSZ3IVYEIuexcALMMl_H-32" target="xSZ3IVYEIuexcALMMl_H-34">
          <mxGeometry relative="1" as="geometry" />
        </mxCell>
        <mxCell id="xSZ3IVYEIuexcALMMl_H-75" style="rounded=0;orthogonalLoop=1;jettySize=auto;html=1;endArrow=none;endFill=0;dashed=1;dashPattern=1 2;strokeColor=#999999;" edge="1" parent="1" source="xSZ3IVYEIuexcALMMl_H-32">
          <mxGeometry relative="1" as="geometry">
            <mxPoint x="400" y="191" as="targetPoint" />
          </mxGeometry>
        </mxCell>
        <mxCell id="xSZ3IVYEIuexcALMMl_H-32" value="" style="ellipse;html=1;shape=endState;fillColor=strokeColor;strokeColor=#999999;" vertex="1" parent="1">
          <mxGeometry x="420" y="202" width="10" height="10" as="geometry" />
        </mxCell>
        <mxCell id="xSZ3IVYEIuexcALMMl_H-33" value="" style="ellipse;html=1;shape=endState;fillColor=strokeColor;strokeColor=#999999;" vertex="1" parent="1">
          <mxGeometry x="445" y="232" width="10" height="10" as="geometry" />
        </mxCell>
        <mxCell id="xSZ3IVYEIuexcALMMl_H-34" value="" style="ellipse;html=1;shape=endState;fillColor=strokeColor;strokeColor=#999999;" vertex="1" parent="1">
          <mxGeometry x="455" y="212" width="10" height="10" as="geometry" />
        </mxCell>
        <mxCell id="xSZ3IVYEIuexcALMMl_H-55" style="edgeStyle=orthogonalEdgeStyle;rounded=0;orthogonalLoop=1;jettySize=auto;html=1;endArrow=none;endFill=0;dashed=1;dashPattern=1 2;strokeColor=#999999;" edge="1" parent="1" source="xSZ3IVYEIuexcALMMl_H-35">
          <mxGeometry relative="1" as="geometry">
            <mxPoint x="410" y="229" as="targetPoint" />
          </mxGeometry>
        </mxCell>
        <mxCell id="xSZ3IVYEIuexcALMMl_H-35" value="" style="ellipse;html=1;shape=endState;fillColor=strokeColor;strokeColor=#999999;" vertex="1" parent="1">
          <mxGeometry x="420" y="224" width="10" height="10" as="geometry" />
        </mxCell>
        <mxCell id="xSZ3IVYEIuexcALMMl_H-37" value="" style="endArrow=none;dashed=1;html=1;dashPattern=1 3;strokeWidth=2;rounded=0;entryX=0.5;entryY=1;entryDx=0;entryDy=0;" edge="1" parent="1" target="xSZ3IVYEIuexcALMMl_H-76">
          <mxGeometry width="50" height="50" relative="1" as="geometry">
            <mxPoint x="440" y="501" as="sourcePoint" />
            <mxPoint x="440" y="370" as="targetPoint" />
          </mxGeometry>
        </mxCell>
        <mxCell id="xSZ3IVYEIuexcALMMl_H-58" style="rounded=0;orthogonalLoop=1;jettySize=auto;html=1;exitX=0;exitY=0;exitDx=0;exitDy=0;endArrow=none;endFill=0;dashed=1;dashPattern=1 2;strokeColor=#999999;" edge="1" parent="1" source="xSZ3IVYEIuexcALMMl_H-38">
          <mxGeometry relative="1" as="geometry">
            <mxPoint x="410" y="291" as="targetPoint" />
          </mxGeometry>
        </mxCell>
        <mxCell id="xSZ3IVYEIuexcALMMl_H-38" value="" style="ellipse;html=1;shape=endState;fillColor=strokeColor;strokeColor=#999999;" vertex="1" parent="1">
          <mxGeometry x="420" y="304" width="10" height="10" as="geometry" />
        </mxCell>
        <mxCell id="xSZ3IVYEIuexcALMMl_H-59" style="rounded=0;orthogonalLoop=1;jettySize=auto;html=1;endArrow=none;endFill=0;dashed=1;dashPattern=1 2;strokeColor=#999999;" edge="1" parent="1" source="xSZ3IVYEIuexcALMMl_H-39">
          <mxGeometry relative="1" as="geometry">
            <mxPoint x="470" y="301" as="targetPoint" />
          </mxGeometry>
        </mxCell>
        <mxCell id="xSZ3IVYEIuexcALMMl_H-39" value="" style="ellipse;html=1;shape=endState;fillColor=strokeColor;strokeColor=#999999;" vertex="1" parent="1">
          <mxGeometry x="455" y="311" width="10" height="10" as="geometry" />
        </mxCell>
        <mxCell id="xSZ3IVYEIuexcALMMl_H-41" style="rounded=0;orthogonalLoop=1;jettySize=auto;html=1;entryX=0.004;entryY=0.343;entryDx=0;entryDy=0;entryPerimeter=0;endArrow=none;endFill=0;strokeColor=#999999;" edge="1" parent="1" source="xSZ3IVYEIuexcALMMl_H-35" target="xSZ3IVYEIuexcALMMl_H-33">
          <mxGeometry relative="1" as="geometry" />
        </mxCell>
        <mxCell id="xSZ3IVYEIuexcALMMl_H-43" style="rounded=0;orthogonalLoop=1;jettySize=auto;html=1;entryX=0.504;entryY=0.486;entryDx=0;entryDy=0;entryPerimeter=0;endArrow=none;endFill=0;strokeColor=#999999;" edge="1" parent="1" source="xSZ3IVYEIuexcALMMl_H-34" target="xSZ3IVYEIuexcALMMl_H-33">
          <mxGeometry relative="1" as="geometry" />
        </mxCell>
        <mxCell id="xSZ3IVYEIuexcALMMl_H-44" style="rounded=0;orthogonalLoop=1;jettySize=auto;html=1;entryX=0.515;entryY=0.42;entryDx=0;entryDy=0;entryPerimeter=0;endArrow=none;endFill=0;strokeColor=#999999;" edge="1" parent="1" source="xSZ3IVYEIuexcALMMl_H-35" target="xSZ3IVYEIuexcALMMl_H-38">
          <mxGeometry relative="1" as="geometry" />
        </mxCell>
        <mxCell id="xSZ3IVYEIuexcALMMl_H-45" style="rounded=0;orthogonalLoop=1;jettySize=auto;html=1;entryX=0.45;entryY=0.524;entryDx=0;entryDy=0;entryPerimeter=0;endArrow=none;endFill=0;strokeColor=#999999;" edge="1" parent="1" source="xSZ3IVYEIuexcALMMl_H-38" target="xSZ3IVYEIuexcALMMl_H-39">
          <mxGeometry relative="1" as="geometry" />
        </mxCell>
        <mxCell id="xSZ3IVYEIuexcALMMl_H-46" style="rounded=0;orthogonalLoop=1;jettySize=auto;html=1;entryX=0.537;entryY=0.589;entryDx=0;entryDy=0;entryPerimeter=0;endArrow=none;endFill=0;strokeColor=#999999;" edge="1" parent="1" source="xSZ3IVYEIuexcALMMl_H-33" target="xSZ3IVYEIuexcALMMl_H-39">
          <mxGeometry relative="1" as="geometry" />
        </mxCell>
        <mxCell id="xSZ3IVYEIuexcALMMl_H-47" style="rounded=0;orthogonalLoop=1;jettySize=auto;html=1;endArrow=none;endFill=0;strokeColor=#999999;" edge="1" parent="1" source="xSZ3IVYEIuexcALMMl_H-69">
          <mxGeometry relative="1" as="geometry">
            <mxPoint x="430" y="331" as="targetPoint" />
          </mxGeometry>
        </mxCell>
        <mxCell id="xSZ3IVYEIuexcALMMl_H-53" style="rounded=0;orthogonalLoop=1;jettySize=auto;html=1;endArrow=none;endFill=0;dashed=1;dashPattern=1 2;strokeColor=#999999;" edge="1" parent="1" source="xSZ3IVYEIuexcALMMl_H-49">
          <mxGeometry relative="1" as="geometry">
            <mxPoint x="400" y="451" as="targetPoint" />
          </mxGeometry>
        </mxCell>
        <mxCell id="xSZ3IVYEIuexcALMMl_H-73" style="rounded=0;orthogonalLoop=1;jettySize=auto;html=1;entryX=0;entryY=0;entryDx=0;entryDy=0;endArrow=none;endFill=0;strokeColor=#999999;" edge="1" parent="1" source="xSZ3IVYEIuexcALMMl_H-49" target="xSZ3IVYEIuexcALMMl_H-50">
          <mxGeometry relative="1" as="geometry" />
        </mxCell>
        <mxCell id="xSZ3IVYEIuexcALMMl_H-78" style="rounded=0;orthogonalLoop=1;jettySize=auto;html=1;entryX=0.25;entryY=1;entryDx=0;entryDy=0;endArrow=none;endFill=0;dashed=1;dashPattern=1 2;strokeColor=#999999;" edge="1" parent="1" source="xSZ3IVYEIuexcALMMl_H-49" target="xSZ3IVYEIuexcALMMl_H-76">
          <mxGeometry relative="1" as="geometry" />
        </mxCell>
        <mxCell id="xSZ3IVYEIuexcALMMl_H-49" value="" style="ellipse;html=1;shape=endState;fillColor=strokeColor;strokeColor=#999999;" vertex="1" parent="1">
          <mxGeometry x="410" y="396" width="10" height="10" as="geometry" />
        </mxCell>
        <mxCell id="xSZ3IVYEIuexcALMMl_H-54" style="rounded=0;orthogonalLoop=1;jettySize=auto;html=1;endArrow=none;endFill=0;dashed=1;dashPattern=1 2;strokeColor=#999999;" edge="1" parent="1" source="xSZ3IVYEIuexcALMMl_H-50">
          <mxGeometry relative="1" as="geometry">
            <mxPoint x="470" y="461" as="targetPoint" />
          </mxGeometry>
        </mxCell>
        <mxCell id="xSZ3IVYEIuexcALMMl_H-79" style="rounded=0;orthogonalLoop=1;jettySize=auto;html=1;entryX=0.834;entryY=0.888;entryDx=0;entryDy=0;endArrow=none;endFill=0;dashed=1;dashPattern=1 2;strokeColor=#999999;entryPerimeter=0;" edge="1" parent="1" source="xSZ3IVYEIuexcALMMl_H-50" target="xSZ3IVYEIuexcALMMl_H-76">
          <mxGeometry relative="1" as="geometry" />
        </mxCell>
        <mxCell id="xSZ3IVYEIuexcALMMl_H-50" value="" style="ellipse;html=1;shape=endState;fillColor=strokeColor;strokeColor=#999999;" vertex="1" parent="1">
          <mxGeometry x="455" y="416" width="10" height="10" as="geometry" />
        </mxCell>
        <mxCell id="xSZ3IVYEIuexcALMMl_H-56" style="rounded=0;orthogonalLoop=1;jettySize=auto;html=1;endArrow=none;endFill=0;dashed=1;dashPattern=1 2;strokeColor=#999999;" edge="1" parent="1">
          <mxGeometry relative="1" as="geometry">
            <mxPoint x="465" y="216.79" as="targetPoint" />
            <mxPoint x="475" y="211" as="sourcePoint" />
          </mxGeometry>
        </mxCell>
        <mxCell id="xSZ3IVYEIuexcALMMl_H-57" style="rounded=0;orthogonalLoop=1;jettySize=auto;html=1;endArrow=none;endFill=0;dashed=1;dashPattern=1 2;exitX=1;exitY=0.5;exitDx=0;exitDy=0;strokeColor=#999999;" edge="1" parent="1" source="xSZ3IVYEIuexcALMMl_H-33">
          <mxGeometry relative="1" as="geometry">
            <mxPoint x="475" y="226.79" as="targetPoint" />
            <mxPoint x="485" y="221" as="sourcePoint" />
          </mxGeometry>
        </mxCell>
        <mxCell id="xSZ3IVYEIuexcALMMl_H-60" value="Validators" style="text;html=1;align=center;verticalAlign=middle;resizable=0;points=[];autosize=1;strokeColor=none;fillColor=none;" vertex="1" parent="1">
          <mxGeometry x="403" y="138" width="80" height="30" as="geometry" />
        </mxCell>
        <mxCell id="xSZ3IVYEIuexcALMMl_H-66" value="" style="triangle;whiteSpace=wrap;html=1;" vertex="1" parent="1">
          <mxGeometry x="360" y="335" width="40" height="30" as="geometry" />
        </mxCell>
        <mxCell id="xSZ3IVYEIuexcALMMl_H-67" value="&lt;span style=&quot;font-size: 10px; text-wrap-mode: wrap;&quot;&gt;&lt;b&gt;POC&lt;/b&gt;&lt;/span&gt;" style="text;html=1;align=center;verticalAlign=middle;resizable=0;points=[];autosize=1;strokeColor=none;fillColor=none;" vertex="1" parent="1">
          <mxGeometry x="348" y="334" width="50" height="30" as="geometry" />
        </mxCell>
        <mxCell id="xSZ3IVYEIuexcALMMl_H-70" value="" style="rounded=0;orthogonalLoop=1;jettySize=auto;html=1;endArrow=none;endFill=0;strokeColor=#999999;" edge="1" parent="1" source="xSZ3IVYEIuexcALMMl_H-38" target="xSZ3IVYEIuexcALMMl_H-69">
          <mxGeometry relative="1" as="geometry">
            <mxPoint x="426" y="314" as="sourcePoint" />
            <mxPoint x="430" y="331" as="targetPoint" />
          </mxGeometry>
        </mxCell>
        <mxCell id="xSZ3IVYEIuexcALMMl_H-71" style="rounded=0;orthogonalLoop=1;jettySize=auto;html=1;entryX=0.5;entryY=1;entryDx=0;entryDy=0;endArrow=none;endFill=0;strokeColor=#999999;" edge="1" parent="1" source="xSZ3IVYEIuexcALMMl_H-69" target="xSZ3IVYEIuexcALMMl_H-39">
          <mxGeometry relative="1" as="geometry" />
        </mxCell>
        <mxCell id="xSZ3IVYEIuexcALMMl_H-69" value="" style="ellipse;html=1;shape=endState;fillColor=strokeColor;strokeColor=#999999;" vertex="1" parent="1">
          <mxGeometry x="428" y="326" width="10" height="10" as="geometry" />
        </mxCell>
        <mxCell id="xSZ3IVYEIuexcALMMl_H-80" style="rounded=0;orthogonalLoop=1;jettySize=auto;html=1;entryX=0.344;entryY=-0.042;entryDx=0;entryDy=0;entryPerimeter=0;endArrow=none;endFill=0;dashed=1;dashPattern=1 2;" edge="1" parent="1" source="xSZ3IVYEIuexcALMMl_H-69" target="xSZ3IVYEIuexcALMMl_H-76">
          <mxGeometry relative="1" as="geometry" />
        </mxCell>
        <mxCell id="xSZ3IVYEIuexcALMMl_H-81" style="rounded=0;orthogonalLoop=1;jettySize=auto;html=1;entryX=0.841;entryY=0.02;entryDx=0;entryDy=0;entryPerimeter=0;endArrow=none;endFill=0;dashed=1;dashPattern=1 2;" edge="1" parent="1" source="xSZ3IVYEIuexcALMMl_H-39" target="xSZ3IVYEIuexcALMMl_H-76">
          <mxGeometry relative="1" as="geometry" />
        </mxCell>
        <mxCell id="xSZ3IVYEIuexcALMMl_H-84" style="rounded=0;orthogonalLoop=1;jettySize=auto;html=1;dashed=1;exitX=0.871;exitY=0.151;exitDx=0;exitDy=0;exitPerimeter=0;" edge="1" parent="1" source="xSZ3IVYEIuexcALMMl_H-76">
          <mxGeometry relative="1" as="geometry">
            <mxPoint x="530" y="310" as="targetPoint" />
          </mxGeometry>
        </mxCell>
        <mxCell id="xSZ3IVYEIuexcALMMl_H-83" value="&lt;span style=&quot;color: rgb(0, 0, 0); font-family: Helvetica; font-style: normal; font-variant-ligatures: normal; font-variant-caps: normal; letter-spacing: normal; orphans: 2; text-indent: 0px; text-transform: none; widows: 2; word-spacing: 0px; -webkit-text-stroke-width: 0px; white-space: normal; background-color: rgb(251, 251, 251); text-decoration-thickness: initial; text-decoration-style: initial; text-decoration-color: initial; float: none; display: inline !important; font-size: 6px;&quot;&gt;&lt;b&gt;Task Allocation&lt;/b&gt;&lt;/span&gt;" style="text;whiteSpace=wrap;html=1;align=center;" vertex="1" parent="1">
          <mxGeometry x="419" y="335" width="50" height="20" as="geometry" />
        </mxCell>
        <mxCell id="xSZ3IVYEIuexcALMMl_H-85" style="rounded=0;orthogonalLoop=1;jettySize=auto;html=1;dashed=1;exitX=0.871;exitY=0.151;exitDx=0;exitDy=0;exitPerimeter=0;" edge="1" parent="1">
          <mxGeometry relative="1" as="geometry">
            <mxPoint x="530" y="390" as="targetPoint" />
            <mxPoint x="469" y="358" as="sourcePoint" />
          </mxGeometry>
        </mxCell>
        <mxCell id="xSZ3IVYEIuexcALMMl_H-87" value="" style="triangle;whiteSpace=wrap;html=1;" vertex="1" parent="1">
          <mxGeometry x="492" y="334.5" width="40" height="30" as="geometry" />
        </mxCell>
        <mxCell id="xSZ3IVYEIuexcALMMl_H-88" value="&lt;span style=&quot;font-size: 10px; text-wrap-mode: wrap;&quot;&gt;&lt;b&gt;POT&lt;/b&gt;&lt;/span&gt;" style="text;html=1;align=center;verticalAlign=middle;resizable=0;points=[];autosize=1;strokeColor=none;fillColor=none;" vertex="1" parent="1">
          <mxGeometry x="485" y="333.5" width="40" height="30" as="geometry" />
        </mxCell>
        <object placeholders="1" c4Name="Reputation System" id="xSZ3IVYEIuexcALMMl_H-89">
          <mxCell style="rounded=1;fontSize=11;whiteSpace=wrap;html=1;dashed=1;arcSize=20;fillColor=none;strokeColor=#666666;fontColor=#333333;labelBackgroundColor=none;align=left;verticalAlign=bottom;labelBorderColor=none;spacingTop=0;spacing=10;dashPattern=8 4;metaEdit=1;rotatable=0;perimeter=rectanglePerimeter;noLabel=0;labelPadding=0;allowArrows=0;connectable=0;expand=0;recursiveResize=0;editable=1;pointerEvents=0;absoluteArcSize=1;points=[[0.25,0,0],[0.5,0,0],[0.75,0,0],[1,0.25,0],[1,0.5,0],[1,0.75,0],[0.75,1,0],[0.5,1,0],[0.25,1,0],[0,0.75,0],[0,0.5,0],[0,0.25,0]];" vertex="1" parent="1">
            <mxGeometry x="540" y="243" width="100" height="210" as="geometry" />
          </mxCell>
        </object>
        <mxCell id="xSZ3IVYEIuexcALMMl_H-91" value="&lt;span style=&quot;color: rgb(0, 0, 0); font-family: Helvetica; font-style: normal; font-variant-ligatures: normal; font-variant-caps: normal; letter-spacing: normal; orphans: 2; text-align: center; text-indent: 0px; text-transform: none; widows: 2; word-spacing: 0px; -webkit-text-stroke-width: 0px; white-space: nowrap; background-color: rgb(251, 251, 251); text-decoration-thickness: initial; text-decoration-style: initial; text-decoration-color: initial; float: none; display: inline !important;&quot;&gt;&lt;font style=&quot;font-size: 7px;&quot;&gt;&lt;b&gt;Reputation System&lt;/b&gt;&lt;/font&gt;&lt;/span&gt;" style="rounded=1;whiteSpace=wrap;html=1;" vertex="1" parent="1">
          <mxGeometry x="555" y="416" width="70" height="30" as="geometry" />
        </mxCell>
        <mxCell id="xSZ3IVYEIuexcALMMl_H-93" value="&lt;span style=&quot;text-wrap-mode: nowrap;&quot;&gt;&lt;font style=&quot;font-size: 8px;&quot;&gt;&lt;b&gt;Profit Distribution&lt;/b&gt;&lt;/font&gt;&lt;/span&gt;" style="rounded=1;whiteSpace=wrap;html=1;" vertex="1" parent="1">
          <mxGeometry x="555" y="258" width="70" height="30" as="geometry" />
        </mxCell>
        <mxCell id="xSZ3IVYEIuexcALMMl_H-95" style="edgeStyle=orthogonalEdgeStyle;rounded=0;orthogonalLoop=1;jettySize=auto;html=1;" edge="1" parent="1" source="xSZ3IVYEIuexcALMMl_H-94">
          <mxGeometry relative="1" as="geometry">
            <mxPoint x="585" y="290" as="targetPoint" />
          </mxGeometry>
        </mxCell>
        <mxCell id="xSZ3IVYEIuexcALMMl_H-99" style="edgeStyle=orthogonalEdgeStyle;rounded=0;orthogonalLoop=1;jettySize=auto;html=1;" edge="1" parent="1" source="xSZ3IVYEIuexcALMMl_H-94" target="xSZ3IVYEIuexcALMMl_H-98">
          <mxGeometry relative="1" as="geometry" />
        </mxCell>
        <mxCell id="xSZ3IVYEIuexcALMMl_H-94" value="Staking" style="ellipse;shape=cloud;whiteSpace=wrap;html=1;" vertex="1" parent="1">
          <mxGeometry x="545" y="328" width="80" height="41" as="geometry" />
        </mxCell>
        <mxCell id="xSZ3IVYEIuexcALMMl_H-96" style="edgeStyle=orthogonalEdgeStyle;rounded=0;orthogonalLoop=1;jettySize=auto;html=1;entryX=0.429;entryY=-0.056;entryDx=0;entryDy=0;entryPerimeter=0;" edge="1" parent="1" source="xSZ3IVYEIuexcALMMl_H-94" target="xSZ3IVYEIuexcALMMl_H-91">
          <mxGeometry relative="1" as="geometry" />
        </mxCell>
        <mxCell id="xSZ3IVYEIuexcALMMl_H-98" value="" style="shape=sumEllipse;perimeter=ellipsePerimeter;html=1;backgroundOutline=1;" vertex="1" parent="1">
          <mxGeometry x="660" y="333" width="30" height="30" as="geometry" />
        </mxCell>
        <mxCell id="xSZ3IVYEIuexcALMMl_H-100" value="&lt;font color=&quot;#666666&quot; style=&quot;font-size: 7px;&quot;&gt;&lt;b style=&quot;&quot;&gt;Malicious Actions&lt;/b&gt;&lt;/font&gt;" style="text;html=1;align=center;verticalAlign=middle;resizable=0;points=[];autosize=1;strokeColor=none;fillColor=none;" vertex="1" parent="1">
          <mxGeometry x="640" y="355" width="80" height="30" as="geometry" />
        </mxCell>
      </root>
    </mxGraphModel>
  </diagram>
</mxfile>
